<?xml version="1.0" encoding="UTF-8" standalone="no"?>
<!-- Created with Inkscape (http://www.inkscape.org/) -->

<svg
   version="1.1"
   id="svg1"
   width="213.6925"
   height="286.33594"
   viewBox="0 0 213.6925 286.33594"
   sodipodi:docname="emblem.svg"
   inkscape:version="1.4.2 (ebf0e940d0, 2025-05-08)"
   xmlns:inkscape="http://www.inkscape.org/namespaces/inkscape"
   xmlns:sodipodi="http://sodipodi.sourceforge.net/DTD/sodipodi-0.dtd"
   xmlns="http://www.w3.org/2000/svg"
   xmlns:svg="http://www.w3.org/2000/svg">
  <defs
     id="defs1" />
  <sodipodi:namedview
     id="namedview1"
     pagecolor="#505050"
     bordercolor="#ffffff"
     borderopacity="1"
     inkscape:showpageshadow="0"
     inkscape:pageopacity="0"
     inkscape:pagecheckerboard="1"
     inkscape:deskcolor="#505050"
     inkscape:zoom="1.2890753"
     inkscape:cx="120.6291"
     inkscape:cy="154.7621"
     inkscape:window-width="1280"
     inkscape:window-height="680"
     inkscape:window-x="0"
     inkscape:window-y="0"
     inkscape:window-maximized="1"
     inkscape:current-layer="g1" />
  <g
     inkscape:groupmode="layer"
     inkscape:label="Image"
     id="g1"
     transform="translate(-6.8565526,-10.148268)">
    <path
       id="path1"
       style="display:inline;fill:#bd9a4a;fill-opacity:1;stroke-width:0.796;stroke-linejoin:bevel;stroke-miterlimit:44.6;stroke-opacity:0"
       d="m 115.19248,10.148268 c 0,0 -7.95345,9.05144 -10.42187,13.98828 -2.46842,4.93684 -4.66149,17.00457 -1.64453,21.94141 3.01696,4.93684 7.67773,9.87305 7.67773,9.87305 l -0.82226,22.76367 -10.148437,-9.59961 c 0,0 -0.82285,-1.9186 -1.91992,-4.93555 -1.09708,-3.01696 -1.36982,-4.38795 -8.22657,-10.42187 -6.85671,-6.03391 -21.39453,-6.85743 -21.39453,-6.85743 0,0 2.46979,14.26159 11.79493,21.39258 9.32515,7.13099 16.18164,5.75977 16.18164,5.75977 l 13.712887,11.79297 -1.3711,28.250002 -25.507807,-14.535162 c 0,0 -5.957874,-14.416024 -20.211783,-16.798385 -10.904882,-1.822613 -18.460087,1.712445 -18.460087,1.712445 0,0 0.641151,8.917335 8.021044,15.151905 8.426459,7.118717 12.806214,6.321197 27.020401,5.532847 l 25.298392,15.51838 -93.800777,-0.82227 -4.1132804,-0.54883 c 0,0 7.1306404,11.51928 10.4218704,12.89063 3.29122,1.37134 6.85742,0.27539 6.85742,0.27539 l 82.005857,0.54883 -71.035147,110.80469 c 0,0 17.00455,17.82694 34.83203,28.52343 17.82749,10.69649 38.466957,21.11857 38.466957,21.11857 0,0 1.84981,3.0162 6.23812,3.0162 4.3883,0 6.58253,-2.53676 6.58253,-2.53673 0,0 17.55324,-7.88516 39.76903,-22.69569 22.21578,-14.81052 34.00976,-28.25 34.00976,-28.25 L 123.421,131.64827 l 89.68555,0.54883 c 0,0 7.13198,-5.21073 7.40625,-8.50195 0.27427,-3.29123 -1.09766,-3.01758 -1.09766,-3.01758 l -92.97656,-0.27344 23.03711,-14.81055 c 0,0 9.72127,1.69346 18.22361,-2.96911 8.50234,-4.662572 17.70606,-18.423462 17.70608,-18.423462 -1e-5,0 -18.99057,-2.932071 -29.68706,2.827609 -10.69649,5.75965 -9.80709,12.805201 -9.80709,12.805201 l -24.95898,14.810542 -1.37109,-29.072262 12.34179,-11.51953 c 0,0 9.32524,0.82348 18.65039,-7.95313 9.32514,-8.77661 10.97071,-18.92578 10.97071,-18.92578 0,0 -8.50223,-3.56455 -21.94141,5.48633 -13.43919,9.05087 -11.79297,17.55273 -11.79297,17.55273 l -8.77734,7.67969 -1.3711,-21.11914 c 0,0 1.55095,-5.033612 5.11141,-11.250567 2.88787,-5.042544 2.10785,-14.910573 -0.52173,-21.214305 -3.94545,-9.458193 -7.05843,-14.160128 -7.05843,-14.160128 z m -6.15625,139.890632 -0.77734,88.82422 -57.792967,-0.7754 z m 12.02344,0.58203 57.4043,88.82422 -57.59766,-0.77539 z m -62.090957,101.15845 48.819477,-0.54908 0.82226,29.07227 c 0,0 -12.068127,-1.91875 -28.249997,-12.61524 -16.18187,-10.69649 -21.39174,-15.90795 -21.39174,-15.90795 z m 61.983537,-1.09791 49.91797,0.27539 c 0,0 -10.97098,10.14748 -24.41016,17.55274 -13.43918,7.40527 -25.23242,10.9707 -25.23242,10.9707 z"
       sodipodi:nodetypes="csscccsscsccccscsccccscccscscscccscccsssccccscscccssccccccccccccscccscc" />
  </g>
</svg>
